<?xml version="1.0" encoding="UTF-8"?>
<svg width="17px" height="14px" viewBox="0 0 17 14" version="1.1" xmlns="http://www.w3.org/2000/svg" xmlns:xlink="http://www.w3.org/1999/xlink">
    <!-- Generator: Sketch 51.3 (57544) - http://www.bohemiancoding.com/sketch -->
    <title>Icon/ clock 1 Copy</title>
    <desc>Created with Sketch.</desc>
    <defs></defs>
    <g id="Web-SP用" stroke="none" stroke-width="1" fill="none" fill-rule="evenodd">
        <g id="[web-GE-1]TOP(マイページmypage)-" transform="translate(-232.000000, -468.000000)" fill="#000000">
            <g id="Group-Copy" transform="translate(18.000000, 430.000000)">
                <g id="Icon/Cocktail-Copy" transform="translate(214.000000, 38.000000)">
                    <path d="M9.27774827,12.1932367 L11.8914224,5.39119314 L16.0081216,5.39119314 L9.27774827,12.1932367 Z M5.10845648,5.39119314 L7.72213057,12.1932367 L0.992052746,5.39119314 L5.10845648,5.39119314 Z M2.78167788,1.52380179 L4.79142367,4.81185207 L0.810046953,4.81185207 L2.78167788,1.52380179 Z M14.218201,1.52380179 L16.1898319,4.81185207 L12.2084552,4.81185207 L14.218201,1.52380179 Z M11.2597204,5.39119314 L8.50008715,12.5735741 L5.74015841,5.39119314 L11.2597204,5.39119314 Z M5.34098661,4.58359168 L3.30080804,1.24600774 L7.90738647,1.24600774 L5.34098661,4.58359168 Z M11.0942606,4.81185207 L5.90561822,4.81185207 L8.50008715,1.43747997 L11.0942606,4.81185207 Z M9.09249237,1.24600774 L13.6990708,1.24600774 L11.6588922,4.58359168 L9.09249237,1.24600774 Z M16.9654248,5.23882644 C16.9707431,5.22955698 16.9734023,5.21941851 16.9778342,5.20956972 C16.984039,5.19450685 16.9902437,5.17944398 16.9934938,5.1635121 C16.996153,5.15308396 16.9967439,5.14236615 16.9976303,5.13135867 C16.9994031,5.11571646 17.000585,5.10036392 16.9996986,5.08472171 C16.9991076,5.07342456 16.9970394,5.06270675 16.9949711,5.05169927 C16.992312,5.03576739 16.9884709,5.02070453 16.9828571,5.00564166 C16.9807889,4.99984825 16.9807889,4.99376517 16.9784252,4.9885511 C16.9760615,4.98304736 16.971925,4.97899197 16.9692658,4.9737779 C16.9660157,4.96769482 16.9645384,4.96045305 16.9609928,4.95465964 L14.4752546,0.809474242 C14.4699362,0.800784126 14.4625496,0.793832033 14.4563449,0.785721258 C14.4480719,0.774713777 14.4406853,0.763126956 14.4303441,0.753278158 C14.4191164,0.741981007 14.4058206,0.73300122 14.3931156,0.724021433 C14.3860245,0.719097034 14.3804107,0.712434612 14.3724331,0.708089554 C14.3718422,0.707799883 14.3712513,0.707799883 14.3706604,0.707510213 C14.3408185,0.69012998 14.3077265,0.679701841 14.2734527,0.673329089 C14.2648843,0.672170407 14.2566113,0.671011725 14.2477474,0.670142713 C14.2388834,0.669273702 14.2300195,0.666666667 14.2205647,0.666666667 L2.77931417,0.666666667 C2.76985933,0.666666667 2.76129087,0.669273702 2.75213149,0.670142713 C2.74326757,0.671011725 2.73529004,0.672170407 2.72672159,0.673329089 C2.69215231,0.679701841 2.65906035,0.69012998 2.62921849,0.707510213 C2.62862756,0.707799883 2.62803663,0.707799883 2.6274457,0.708089554 C2.61976364,0.712434612 2.61444529,0.718807364 2.60735415,0.723442092 C2.59405828,0.73300122 2.5807624,0.741981007 2.56923931,0.753567828 C2.55978446,0.762547615 2.55298879,0.773265425 2.54530673,0.783403894 C2.53851105,0.79238368 2.53023806,0.799915114 2.52462425,0.809474242 L0.0388860466,4.95465964 C0.0353404793,4.96045305 0.0338631595,4.96769482 0.03090852,4.9737779 C0.0279538805,4.97899197 0.0238173852,4.98304736 0.0214536737,4.9885511 C0.019385426,4.99376517 0.0190899621,4.99984825 0.0170217144,5.00564166 C0.0117033633,5.02070453 0.00756686805,5.03576739 0.00490769251,5.05169927 C0.00283944487,5.06270675 0.00106666118,5.07342456 0.00047573328,5.08472171 C-0.000706122515,5.10036392 0.00047573328,5.11571646 0.00224851697,5.13164834 C0.00343037277,5.14236615 0.00402130067,5.15308396 0.00638501226,5.1635121 C0.00993057965,5.17973365 0.0161353226,5.19537586 0.0226355294,5.2107284 C0.0267720247,5.22028753 0.0294312003,5.22955698 0.0341586235,5.23853677 C0.0356359432,5.24085413 0.0359314072,5.2431715 0.0371132629,5.24548886 C0.0468635733,5.26200008 0.0595685231,5.27619394 0.0722734729,5.2903878 C0.0758190403,5.29444318 0.0778872879,5.29907791 0.0814328553,5.3031333 L0.0843874948,5.30603001 C0.0843874948,5.30631968 0.0846829587,5.30631968 0.0846829587,5.30631968 L8.28794404,13.5972698 C8.28942136,13.5987182 8.2914896,13.5992975 8.29296692,13.6004562 C8.29858074,13.6059599 8.30537641,13.6097257 8.31158115,13.6146501 C8.32930899,13.6294232 8.34821868,13.6412997 8.36860569,13.6511485 C8.37628776,13.6552039 8.38278796,13.6601283 8.39106095,13.6633147 C8.39283374,13.6641837 8.39401559,13.6659217 8.39578838,13.6665011 C8.39844755,13.6673701 8.40110673,13.6670804 8.4037659,13.6679494 C8.43449416,13.6783776 8.46669973,13.68504 8.50008715,13.68504 C8.53317911,13.68504 8.56538468,13.6783776 8.5964084,13.6679494 C8.59906757,13.6670804 8.60143129,13.6673701 8.60409046,13.6665011 C8.60615871,13.6659217 8.6070451,13.6641837 8.60911335,13.6633147 C8.61709088,13.6601283 8.62359108,13.6552039 8.63127315,13.6511485 C8.65195562,13.6412997 8.67086531,13.6294232 8.68829769,13.6146501 C8.69450243,13.6097257 8.70159357,13.6059599 8.70720738,13.6004562 C8.7086847,13.5992975 8.71075295,13.5987182 8.7119348,13.5972698 L16.918446,5.3031333 C16.9228779,5.29849857 16.9252417,5.29270516 16.9296736,5.28778076 C16.9414922,5.27416625 16.9536062,5.2608414 16.9627656,5.24519919 C16.9639474,5.2431715 16.9642429,5.24085413 16.9654248,5.23882644 Z" id="Fill-1"></path>
                </g>
            </g>
        </g>
    </g>
</svg>