<?xml version="1.0" encoding="utf-8"?>
<!-- Generator: Adobe Illustrator 22.1.0, SVG Export Plug-In . SVG Version: 6.00 Build 0)  -->
<svg version="1.1" id="グループ_24" xmlns="http://www.w3.org/2000/svg" xmlns:xlink="http://www.w3.org/1999/xlink" x="0px"
	 y="0px" viewBox="0 0 124 123.4" style="enable-background:new 0 0 124 123.4;" xml:space="preserve">
<style type="text/css">
	.st0{fill:#FFFFFF;}
	.st1{enable-background:new    ;}
	.st2{fill:#20B3B9;}
</style>
<path id="楕円形_546" class="st0" d="M60.7,0c31.9,0,57.8,25.9,57.7,57.8c0,8-2.2,16.4-4.5,20.6c-1,1.8,6,17,6,17s-14.7-2.9-16-1
	c-8,11.9-24.5,21.2-43.3,21.2C28.8,115.6,3,89.7,3,57.8C3,25.9,28.8,0,60.7,0z"/>
<g class="st1">
	<path class="st2" d="M19.3,35.6h5.9v1.6h-4v2.5h3.4v1.6h-3.4v3.9h-1.9V35.6z"/>
	<path class="st2" d="M25.8,43.2c0-1.6,1.3-2.4,4.2-2.7c0-0.7-0.3-1.3-1.2-1.3c-0.7,0-1.3,0.3-2,0.7l-0.7-1.3c0.9-0.5,1.9-1,3-1
		c1.8,0,2.8,1.1,2.8,3.2v4.3h-1.6l-0.1-0.8h0c-0.6,0.5-1.4,1-2.2,1C26.7,45.4,25.8,44.4,25.8,43.2z M30,43.2v-1.5
		c-1.8,0.2-2.4,0.7-2.4,1.4c0,0.6,0.4,0.8,1,0.8C29.1,43.9,29.6,43.6,30,43.2z"/>
	<path class="st2" d="M33.4,41.6c0-2.4,1.7-3.8,3.7-3.8c0.9,0,1.6,0.4,2.1,0.8l-0.9,1.2c-0.4-0.3-0.7-0.5-1.1-0.5
		c-1.1,0-1.9,0.9-1.9,2.3c0,1.4,0.8,2.2,1.8,2.2c0.5,0,1-0.2,1.4-0.6l0.8,1.3c-0.7,0.6-1.6,0.9-2.4,0.9C34.9,45.4,33.4,44,33.4,41.6
		z"/>
	<path class="st2" d="M39.9,41.6c0-2.4,1.7-3.8,3.4-3.8c2,0,3,1.5,3,3.5c0,0.4,0,0.7-0.1,0.9h-4.5c0.2,1.2,0.9,1.8,2,1.8
		c0.6,0,1.1-0.2,1.6-0.5l0.6,1.2c-0.7,0.5-1.6,0.8-2.5,0.8C41.5,45.4,39.9,43.9,39.9,41.6z M44.7,40.8c0-1-0.4-1.6-1.4-1.6
		c-0.8,0-1.4,0.5-1.6,1.6H44.7z"/>
	<path class="st2" d="M49.6,44.4L49.6,44.4l-0.2,0.8h-1.5V34.8h1.9v2.6l0,1.2c0.6-0.5,1.3-0.9,2-0.9c1.8,0,2.9,1.5,2.9,3.7
		c0,2.5-1.5,4-3.1,4C50.9,45.4,50.2,45,49.6,44.4z M52.7,41.5c0-1.4-0.4-2.2-1.4-2.2c-0.5,0-0.9,0.2-1.4,0.8v3.2
		c0.5,0.4,0.9,0.5,1.3,0.5C52,43.8,52.7,43,52.7,41.5z"/>
	<path class="st2" d="M55.8,41.6c0-2.4,1.7-3.8,3.5-3.8c1.8,0,3.5,1.4,3.5,3.8c0,2.4-1.7,3.8-3.5,3.8C57.5,45.4,55.8,44,55.8,41.6z
		 M60.8,41.6c0-1.4-0.6-2.3-1.5-2.3c-1,0-1.5,0.9-1.5,2.3c0,1.4,0.6,2.2,1.5,2.2C60.3,43.8,60.8,42.9,60.8,41.6z"/>
	<path class="st2" d="M63.9,41.6c0-2.4,1.7-3.8,3.5-3.8s3.5,1.4,3.5,3.8c0,2.4-1.7,3.8-3.5,3.8S63.9,44,63.9,41.6z M69,41.6
		c0-1.4-0.6-2.3-1.5-2.3s-1.5,0.9-1.5,2.3c0,1.4,0.6,2.2,1.5,2.2S69,42.9,69,41.6z"/>
	<path class="st2" d="M72.5,34.8h1.9v6.2h0.1l2.5-3.1H79l-2.5,3l2.8,4.3h-2.1l-1.8-3l-1.1,1.2v1.8h-1.9V34.8z"/>
	<path class="st2" d="M83.2,35.3c-0.1,0.3-0.3,0.9-0.3,1.1c-0.2,0.9-0.6,3.4-0.6,4.7c0,0.2,0,0.6,0.1,0.8c0.2-0.5,0.4-0.9,0.6-1.3
		l0.8,0.6c-0.4,1.1-0.8,2.5-0.9,3.2c0,0.2-0.1,0.5-0.1,0.6c0,0.1,0,0.4,0,0.5l-1.5,0.1c-0.3-0.9-0.5-2.5-0.5-4.2
		c0-1.9,0.4-4.1,0.5-5.1c0.1-0.4,0.1-0.9,0.1-1.3L83.2,35.3z M86.2,41.6C86.1,42,86,42.4,86,42.7c0,0.6,0.5,0.9,1.8,0.9
		c1.2,0,2.1-0.1,3.2-0.3l0,1.7c-0.8,0.2-1.9,0.3-3.3,0.3c-2.2,0-3.3-0.8-3.3-2.1c0-0.5,0.1-1.1,0.2-1.7L86.2,41.6z M90.7,36.1v1.7
		c-1.6,0.1-3.9,0.1-5.5,0l0-1.7C86.7,36.3,89.3,36.3,90.7,36.1z"/>
	<path class="st2" d="M95.7,35.2c-0.1,0.3-0.3,0.9-0.3,1.1c-0.2,0.9-0.6,3.7-0.6,5c0,0.3,0,0.6,0.1,0.8c0.2-0.5,0.4-0.9,0.6-1.3
		l0.8,0.6c-0.4,1.1-0.8,2.4-0.9,3.1c0,0.2-0.1,0.5-0.1,0.6c0,0.1,0,0.4,0,0.5l-1.5,0.1c-0.3-0.9-0.5-2.4-0.5-4.1
		c0-2,0.4-4.4,0.5-5.4c0.1-0.4,0.1-0.9,0.1-1.3L95.7,35.2z M103.6,44.9c-0.5-0.5-1.1-0.9-1.6-1.3c-0.1,1.2-0.8,2.1-2.5,2.1
		c-1.8,0-2.9-0.8-2.9-2.1c0-1.3,1.1-2.2,2.9-2.2c0.3,0,0.6,0,0.8,0.1c0-0.8-0.1-1.7-0.1-2.6c-0.3,0-0.6,0-0.9,0
		c-0.8,0-1.5,0-2.2-0.1v-1.5c0.7,0.1,1.5,0.1,2.2,0.1c0.3,0,0.6,0,0.9,0c0-0.6,0-1.2,0-1.4c0-0.2,0-0.6-0.1-0.8h1.8
		c0,0.2-0.1,0.6-0.1,0.8c0,0.3,0,0.8,0,1.3c0.7-0.1,1.4-0.2,2-0.3v1.6c-0.6,0.1-1.3,0.2-2,0.2c0,1.2,0.1,2.3,0.1,3.1
		c1.1,0.4,1.9,1.1,2.5,1.7L103.6,44.9z M100.4,42.8c-0.3-0.1-0.7-0.1-1-0.1c-0.7,0-1.2,0.3-1.2,0.8c0,0.5,0.5,0.8,1.2,0.8
		c0.8,0,1.1-0.4,1.1-1.2V42.8z"/>
</g>
<g class="st1">
	<path class="st2" d="M28.7,57.3V59h-12v-1.7H28.7z"/>
	<path class="st2" d="M33.5,60.3c0.2,0,0.3-0.3,0.3-1.7c0.3,0.3,0.9,0.5,1.4,0.6c-0.1,1.9-0.5,2.5-1.5,2.5h-1.1
		c-1.2,0-1.5-0.5-1.5-2.1v-2.4l-1.2,0.2l-0.2-1.4l1.5-0.3v-3.3h1.5v3l2.5-0.5l0.2,1.4L32.5,57v2.7c0,0.5,0,0.6,0.3,0.6H33.5z
		 M41.6,53.1c0,0,0,0.6,0,0.8c-0.1,6.5-0.3,8.7-0.8,9.4c-0.4,0.5-0.7,0.7-1.2,0.8c-0.5,0.1-1.2,0.1-1.9,0c0-0.4-0.2-1.1-0.5-1.6
		c0.7,0.1,1.3,0.1,1.6,0.1c0.2,0,0.4-0.1,0.5-0.2c0.4-0.5,0.5-2.5,0.6-7.8h-2c-0.1,4.1-0.4,7.7-3.6,9.8c-0.2-0.4-0.7-1-1.1-1.2
		c2.9-1.8,3.1-4.9,3.1-8.5h-2v-1.5H41.6z"/>
	<path class="st2" d="M54.4,59.4c-0.8,0.6-1.8,1.2-2.6,1.6c0.8,0.8,1.8,1.5,3.1,1.8c-0.3,0.3-0.8,0.9-1,1.4c-2.7-0.9-4.2-2.9-5-5.8
		c-0.5,0.5-1.1,0.9-1.7,1.3v2.4c0.9-0.2,1.9-0.4,2.8-0.6l0.1,1.4c-2,0.5-4.2,0.9-5.8,1.3l-0.5-1.4c0.5-0.1,1.1-0.2,1.8-0.3v-1.9
		c-0.7,0.4-1.4,0.6-2.2,0.9c-0.2-0.4-0.7-0.9-1-1.2c1.5-0.4,3.2-1.1,4.4-2h-4V57h5v-0.7h-3.9V55h3.9v-0.7h-4.5V53h4.5v-0.9h1.5V53
		h4.6v1.3h-4.6V55h4.1v1.2h-4.1V57h5v1.3h-4.1c0.2,0.6,0.5,1.2,0.8,1.7c0.7-0.5,1.5-1.1,2-1.6L54.4,59.4z"/>
	<path class="st2" d="M59.4,59.1c-0.6,1.5-1.5,3.1-2.5,4.1c-0.3-0.3-1-0.7-1.4-0.9c0.9-0.9,1.8-2.2,2.3-3.6L59.4,59.1z M62.6,57.7
		v4.8c0,0.9-0.2,1.3-0.8,1.5c-0.6,0.2-1.5,0.3-2.6,0.3c-0.1-0.5-0.3-1.2-0.5-1.6c0.7,0,1.7,0.1,1.9,0c0.2,0,0.3-0.1,0.3-0.2v-4.8h-5
		v-1.5h11.6v1.5H62.6z M66.3,54.5h-9.2V53h9.2V54.5z M65.4,58.6c0.9,1.2,1.8,2.8,2.2,3.9l-1.6,0.7c-0.3-1.1-1.2-2.7-2-4L65.4,58.6z"
		/>
	<path class="st2" d="M71.5,64.1c-0.8-1-1.9-2.1-2.8-2.9l1.4-1.2c0.9,0.8,2.2,2,2.8,2.8L71.5,64.1z"/>
	<path class="st2" d="M78.4,59.5v3.1c0,0.8-0.1,1.1-0.6,1.4c-0.4,0.2-1.1,0.3-2,0.3c-0.1-0.4-0.2-1-0.4-1.4c0.5,0,1,0,1.2,0
		c0.2,0,0.2-0.1,0.2-0.2V60c-0.5,0.2-1,0.3-1.4,0.4l-0.4-1.6c0.5-0.1,1.1-0.2,1.8-0.4V56h-1.6v-1.4h1.6v-2.4h1.5v2.4h1.3V56h-1.3v2
		l1.1-0.3l0.2,1.3L78.4,59.5z M86.6,58.1c-0.4,1.6-1.2,2.8-2.1,3.8c0.9,0.5,1.9,0.9,3,1.1c-0.4,0.3-0.8,1-1,1.4
		c-1.3-0.3-2.4-0.8-3.3-1.4c-1,0.7-2.2,1.1-3.5,1.5c-0.2-0.4-0.5-1.1-0.8-1.4c1.1-0.2,2.2-0.6,3.1-1.1c-0.6-0.7-1.1-1.5-1.6-2.4
		l1.1-0.3h-1.4v-1.4h0.3c-0.2-0.3-0.7-0.9-1-1.1c1.3-0.7,1.4-1.8,1.4-2.6v-1.3h4.6v2.8c0,0.4,0,0.4,0.2,0.4h0.4
		c0.2,0,0.2-0.2,0.3-1.3c0.3,0.2,0.9,0.5,1.3,0.5c-0.1,1.6-0.5,2-1.4,2h-0.8c-1.1,0-1.4-0.4-1.4-1.7v-1.4h-1.7
		c0,1.2-0.4,2.7-1.8,3.6h4.9l0.3-0.1L86.6,58.1z M81.8,59.1c0.3,0.7,0.8,1.3,1.4,1.8c0.6-0.5,1-1.1,1.4-1.8H81.8z"/>
	<path class="st2" d="M100,63c0,0.6-0.1,0.9-0.5,1.1c-0.4,0.2-0.9,0.2-1.5,0.2c-0.1-0.4-0.2-0.8-0.4-1.2c0.3,0,0.7,0,0.8,0
		c0.1,0,0.2-0.1,0.2-0.2v-3.3h-4.3v4.7h-1.4v-5l-0.8,1.1c-0.2-0.3-0.4-0.8-0.7-1.3v5.2h-1.5V60c-0.4,0.9-0.8,1.7-1.2,2.3
		c-0.1-0.4-0.5-1.1-0.7-1.5c0.7-0.8,1.3-2.2,1.8-3.5h-1.5v-1.4h1.7v-1.6c-0.5,0.1-0.9,0.1-1.3,0.2c-0.1-0.3-0.2-0.9-0.4-1.2
		c1.4-0.2,2.8-0.5,3.8-0.9l1,1.1h2.8v-1.2h1.5v1.2h2.8v1.2h-7.2v-1.1c-0.4,0.2-0.9,0.3-1.4,0.4v1.8h1.4v1.4h-1.4v0.2
		c0.4,0.3,1.2,1.3,1.5,1.7v-0.7h7.1V63z M93.9,58v-2.9h5.4V58H93.9z M95.9,62.9v0.6h-1.1v-3.4h3.2v2.8H95.9z M95.2,56.9h2.7v-0.8
		h-2.7V56.9z M95.9,61.1V62H97v-0.9H95.9z"/>
</g>
<g class="st1">
	<path class="st2" d="M33.4,73.5c-0.7,0.2-1.4,0.4-2.2,0.5c0.5,1,1.1,2.3,1.7,3.3l-0.9,1c-0.7-0.1-2-0.4-2.9-0.5l0.1-1.3
		c0.4,0,1.1,0.1,1.5,0.1c-0.3-0.6-0.8-1.5-1.1-2.4c-1.6,0.2-3.4,0.2-5.4,0l-0.1-1.7c1.8,0.2,3.4,0.3,4.8,0.1
		c-0.1-0.2-0.2-0.4-0.3-0.6c-0.2-0.5-0.4-0.8-0.6-1.2l1.8-0.4c0.2,0.7,0.5,1.3,0.8,2c0.9-0.2,1.7-0.4,2.5-0.6L33.4,73.5z M26.4,77.1
		c-0.2,0.4-0.4,1.2-0.4,1.5c0,0.9,0.5,1.6,2.3,1.6c1.8,0,2.6-0.2,3.5-0.4l0,1.7c-0.7,0.1-1.8,0.3-3.5,0.3c-2.6,0-4-1-4-2.8
		c0-0.6,0.2-1.4,0.4-2.1L26.4,77.1z"/>
	<path class="st2" d="M47,80.5c-0.6,0.6-1.4,1-2.4,1c-1,0-1.6-0.7-1.6-2c0-1.4,0.5-3.3,0.5-4.5c0-0.6-0.3-0.9-0.9-0.9
		c-1,0-2.4,1.2-3.4,2.3c0,0.4,0,0.7,0,1c0,1.1,0,2.1,0.1,3.3c0,0.2,0.1,0.7,0.1,1h-1.8c0-0.3,0-0.7,0-0.9c0-1,0-1.7,0.1-2.8
		c-0.6,0.8-1.2,1.8-1.6,2.4l-1-1.4c0.7-0.9,2-2.6,2.8-3.7l0.1-0.9c-0.6,0.1-1.6,0.2-2.3,0.3L35.3,73c0.4,0,0.7,0,1.1,0
		c0.4,0,0.9-0.1,1.5-0.2c0-0.5,0.1-0.8,0.1-1c0-0.4,0-0.8-0.1-1.1l1.9,0.1c-0.1,0.4-0.2,1-0.3,1.8l0.5,0.6c-0.2,0.2-0.4,0.6-0.7,1
		c0,0.1,0,0.2,0,0.3c1-0.9,2.5-1.9,3.7-1.9c1.4,0,2,0.8,2,1.9c0,1.3-0.4,3.2-0.4,4.6c0,0.3,0.2,0.6,0.5,0.6c0.5,0,1.1-0.3,1.7-0.9
		L47,80.5z"/>
	<path class="st2" d="M57.1,81.3c-0.7-0.7-1.6-1.3-2.6-1.8c0,0.2,0,0.3,0,0.5c0,1.1-0.8,2-2.5,2c-2.1,0-3.1-0.8-3.1-2.1
		c0-1.3,1.2-2.2,3.2-2.2c0.3,0,0.5,0,0.8,0c0-0.4,0-0.8-0.1-1.2h-0.7c-0.8,0-2.2-0.1-3.1-0.2l0-1.5c0.7,0.1,2.4,0.2,3.1,0.2h0.6
		v-1.3h-0.6c-0.8,0-2.1-0.1-2.8-0.2l0-1.5c0.8,0.2,2,0.2,2.8,0.2h0.6v-0.6c0-0.2,0-0.6-0.1-0.9h1.8c0,0.3-0.1,0.6-0.1,0.9l0,0.5
		c1,0,2-0.1,3.1-0.3l0,1.5c-0.8,0.1-1.9,0.2-3.1,0.2l0,1.3c1.3-0.1,2.4-0.2,3.4-0.3v1.5c-1.2,0.1-2.2,0.2-3.4,0.3
		c0,0.5,0.1,1,0.1,1.5c1.6,0.5,2.9,1.3,3.6,2L57.1,81.3z M52.9,78.9c-0.3-0.1-0.7-0.1-1.1-0.1c-0.9,0-1.4,0.4-1.4,0.8
		c0,0.5,0.5,0.8,1.3,0.8c0.7,0,1.1-0.2,1.1-0.9C52.9,79.3,52.9,79.2,52.9,78.9z"/>
	<path class="st2" d="M68.3,71c0,0.2-0.1,0.8-0.1,1.1c0,0.5,0,1,0,1.4c0.4,0,0.7-0.1,1-0.1c0.4,0,0.9-0.1,1.2-0.1V75
		c-0.2,0-0.9,0-1.2,0c-0.3,0-0.6,0-1,0.1c0,1-0.1,2-0.2,2.6c-0.1,0.7-0.5,0.8-1.1,0.8c-0.5,0-1.5-0.1-1.9-0.2l0-1.4
		c0.4,0.1,0.9,0.2,1.2,0.2s0.4-0.1,0.4-0.3c0.1-0.4,0.1-0.9,0.1-1.5c-1.1,0.1-2.4,0.2-3.5,0.3c0,1.2,0,2.4,0,2.9
		c0,1.3,0.1,1.5,2.1,1.5c1.3,0,2.9-0.2,3.8-0.3L69,81.4c-0.9,0.1-2.4,0.2-3.7,0.2c-3.3,0-3.7-0.7-3.8-2.9c0-0.5,0-1.8,0-3l-0.9,0.1
		c-0.4,0.1-1.2,0.2-1.5,0.2l-0.2-1.7c0.4,0,1,0,1.6-0.1l1-0.1v-1.3c0-0.5,0-1-0.1-1.4h1.8c-0.1,0.4-0.1,0.8-0.1,1.3
		c0,0.3,0,0.7,0,1.2c1.1-0.1,2.3-0.2,3.5-0.3v-1.5c0-0.3-0.1-0.9-0.1-1.2H68.3z"/>
	<path class="st2" d="M77.6,72c-0.6,0.9-1.6,2.7-2.2,3.8c0.5-0.3,1-0.4,1.5-0.4c1,0,1.5,0.6,1.6,1.7c0,0.6,0,1.6,0.1,2.1
		c0,0.5,0.4,0.7,0.8,0.7c1.1,0,1.8-1.4,2.2-3l1.4,1.1c-0.7,2.2-1.9,3.7-3.8,3.7c-1.4,0-2.1-0.9-2.1-1.8c-0.1-0.7,0-1.7-0.1-2.3
		c0-0.5-0.3-0.7-0.8-0.7c-0.9,0-1.6,0.9-2.1,1.9c-0.4,0.8-0.8,2.2-1,2.9l-1.8-0.6c0.9-2.6,3.7-8,4.3-9.2c0.2-0.4,0.4-0.8,0.6-1.3
		l1.8,0.7C77.9,71.6,77.7,71.8,77.6,72z"/>
	<path class="st2" d="M84.9,80c0-0.7,0.6-1.3,1.4-1.3c0.8,0,1.4,0.5,1.4,1.3c0,0.8-0.6,1.3-1.4,1.3C85.5,81.3,84.9,80.8,84.9,80z
		 M85.1,73.4l-0.1-1.9h2.4l-0.1,1.9L87,77.9h-1.3L85.1,73.4z"/>
</g>
</svg>
