<?xml version="1.0" encoding="UTF-8"?>
<svg width="17px" height="12px" viewBox="0 0 17 12" version="1.1" xmlns="http://www.w3.org/2000/svg" xmlns:xlink="http://www.w3.org/1999/xlink">
    <!-- Generator: Sketch 51.3 (57544) - http://www.bohemiancoding.com/sketch -->
    <title>Icon/guest bk 1 Copy 2</title>
    <desc>Created with Sketch.</desc>
    <defs></defs>
    <g id="Web-SP用" stroke="none" stroke-width="1" fill="none" fill-rule="evenodd">
        <g id="[web-GE-3]MENU" transform="translate(-119.000000, -492.000000)" fill="#222222" fill-rule="nonzero">
            <g id="Icon/Credit" transform="translate(118.000000, 490.000000)">
                <path d="M3.52,2.28571429 L15.48,2.28571429 C16.5845695,2.28571429 17.48,3.18114479 17.48,4.28571429 L17.48,11.7142857 C17.48,12.8188552 16.5845695,13.7142857 15.48,13.7142857 L3.52,13.7142857 C2.4154305,13.7142857 1.52,12.8188552 1.52,11.7142857 L1.52,4.28571429 C1.52,3.18114479 2.4154305,2.28571429 3.52,2.28571429 Z M3.78,3.04761905 C2.95157288,3.04761905 2.28,3.71919192 2.28,4.54761905 L2.28,11.452381 C2.28,12.2808081 2.95157288,12.952381 3.78,12.952381 L15.22,12.952381 C16.0484271,12.952381 16.72,12.2808081 16.72,11.452381 L16.72,4.54761905 C16.72,3.71919192 16.0484271,3.04761905 15.22,3.04761905 L3.78,3.04761905 Z M2.66095238,5.33333333 L13.2990476,5.33333333 C13.5094418,5.33333333 13.68,5.50389152 13.68,5.71428571 C13.68,5.9246799 13.5094418,6.0952381 13.2990476,6.0952381 L2.66095238,6.0952381 C2.45055819,6.0952381 2.28,5.9246799 2.28,5.71428571 C2.28,5.50389152 2.45055819,5.33333333 2.66095238,5.33333333 Z" id="Combined-Shape"></path>
            </g>
        </g>
    </g>
</svg>