<?xml version="1.0" encoding="utf-8"?>
<!-- Generator: Adobe Illustrator 22.1.0, SVG Export Plug-In . SVG Version: 6.00 Build 0)  -->
<svg version="1.1" id="レイヤー_1" xmlns="http://www.w3.org/2000/svg" xmlns:xlink="http://www.w3.org/1999/xlink" x="0px"
	 y="0px" viewBox="0 0 54 39" style="enable-background:new 0 0 54 39;" xml:space="preserve">
<style type="text/css">
	.st0{fill:#00C3C3;}
	.st1{enable-background:new    ;}
</style>
<title>Group</title>
<desc>Created with Sketch.</desc>
<g id="Icon_x2F_message-gr" transform="translate(16.000000, 0.000000)">
	<g id="Page-1" transform="translate(1.000000, 0.000000)">
		<path id="Combined-Shape" class="st0" d="M10.1,23c-2.1,0-4.1-0.6-5.8-1.7c-1.9,1.2-3.9,1.4-4,1.4c-0.2,0-0.3-0.1-0.4-0.3
			s0-0.4,0.1-0.5c0,0,0.9-0.9,1.9-2.7c-1.8-2-2.8-4.6-2.8-7.3c0-2.9,1.1-5.7,3.2-7.8C4.4,2.1,7.2,1,10.1,1s5.7,1.1,7.8,3.2
			c2.1,2.1,3.2,4.8,3.2,7.8c0,2.9-1.1,5.7-3.2,7.8C15.8,21.9,13.1,23,10.1,23z M4.3,20.4c0.1,0,0.2,0,0.2,0.1
			c1.7,1.1,3.6,1.7,5.6,1.7c5.6,0,10.2-4.6,10.2-10.2c0-5.6-4.6-10.2-10.2-10.2S0,6.4,0,12c0,2.6,1,5.1,2.8,7
			c0.1,0.1,0.2,0.3,0.1,0.5c-0.5,1-1,1.7-1.4,2.2c0.7-0.2,1.7-0.5,2.7-1.2C4.1,20.4,4.2,20.4,4.3,20.4z M6.2,12.3
			c0,0.4-0.4,0.8-0.8,0.8c-0.4,0-0.8-0.4-0.8-0.8c0-0.4,0.4-0.8,0.8-0.8C5.8,11.5,6.2,11.8,6.2,12.3z M10.9,12.3
			c0,0.4-0.4,0.8-0.8,0.8c-0.4,0-0.8-0.4-0.8-0.8c0-0.4,0.4-0.8,0.8-0.8C10.5,11.5,10.9,11.8,10.9,12.3z M15.7,12.3
			c0,0.4-0.4,0.8-0.8,0.8c-0.4,0-0.8-0.4-0.8-0.8c0-0.4,0.4-0.8,0.8-0.8C15.3,11.5,15.7,11.8,15.7,12.3z"/>
	</g>
</g>
<g class="st1">
	<path class="st0" d="M10.3,28.9c-0.1,0.2-0.4,0.7-0.5,1c-0.3,0.9-0.8,2-1.5,3c1,0.8,1.9,1.6,2.6,2.4l-1.1,1.3
		c-0.8-0.9-1.6-1.7-2.4-2.4c-1,1.2-2.2,2.4-4.1,3.4L2,36.4c1.8-0.9,3.1-1.9,4.2-3.2c-0.8-0.6-1.8-1.4-2.9-2.1L4.2,30
		c0.9,0.6,2,1.3,2.9,2c0.6-0.9,0.9-1.7,1.2-2.6c0.1-0.3,0.2-0.7,0.3-1L10.3,28.9z"/>
	<path class="st0" d="M14.5,33.5l-1.3,0.5c-0.2-0.6-0.7-2.1-1-2.5l1.3-0.5C13.7,31.6,14.3,32.9,14.5,33.5z M20.1,31.3
		c-0.1,0.4-0.2,0.6-0.3,0.8c-0.3,1.1-0.7,2.3-1.5,3.2c-1,1.3-2.4,2.2-3.7,2.7l-1.2-1.2c1.2-0.3,2.7-1.2,3.7-2.3
		c0.7-0.9,1.3-2.4,1.4-3.8L20.1,31.3z M16.9,32.9l-1.3,0.5c-0.1-0.5-0.6-1.9-0.9-2.4l1.3-0.4C16.2,30.9,16.7,32.4,16.9,32.9z"/>
	<path class="st0" d="M26.9,33.8c0.7-0.6,1.5-1.6,1.8-2.2c-0.3,0.1-1.8,0.4-3.4,0.7v2.9c0,0.7,0.2,0.9,1.4,0.9
		c1.2,0,2.4-0.2,3.5-0.4l0,1.5c-0.9,0.1-2.2,0.2-3.4,0.2c-2.5,0-2.9-0.6-2.9-1.9v-3c-1,0.2-1.8,0.4-2.3,0.5l-0.3-1.4
		c0.5-0.1,1.5-0.2,2.6-0.4v-1.6c0-0.4,0-0.9-0.1-1.3h1.6c-0.1,0.3-0.1,0.9-0.1,1.3v1.3c1.6-0.3,3.1-0.6,3.6-0.7
		c0.3-0.1,0.6-0.2,0.8-0.3l1.1,0.8c-0.1,0.2-0.3,0.4-0.4,0.6c-0.5,0.9-1.5,2.4-2.3,3.2L26.9,33.8z"/>
	<path class="st0" d="M32.1,31.9c0.4,0,1.2,0.1,1.8,0.1h5.9c0.5,0,1,0,1.3-0.1v1.7c-0.3,0-0.8-0.1-1.3-0.1h-5.9
		c-0.6,0-1.4,0-1.8,0.1V31.9z"/>
	<path class="st0" d="M45.7,32.4l-0.8,1.2c-0.6-0.4-1.8-1.2-2.5-1.6l0.8-1.2C43.9,31.2,45.1,32,45.7,32.4z M46.6,34.9
		c1.9-1,3.4-2.6,4.3-4.1l0.8,1.5c-1,1.5-2.6,2.9-4.4,4c-1.1,0.6-2.7,1.2-3.7,1.4l-0.8-1.4C44.1,35.9,45.4,35.6,46.6,34.9z
		 M47.4,29.9l-0.8,1.2c-0.6-0.4-1.8-1.2-2.5-1.6l0.8-1.2C45.6,28.7,46.8,29.5,47.4,29.9z M50.7,30.3l-1,0.4c-0.3-0.7-0.6-1.2-1-1.7
		l0.9-0.4C50,29,50.4,29.8,50.7,30.3z M52.2,29.7l-0.9,0.4c-0.4-0.7-0.6-1.1-1-1.7l0.9-0.4C51.5,28.5,51.9,29.2,52.2,29.7z"/>
</g>
</svg>
