<svg id="レイヤー_1" data-name="レイヤー 1" xmlns="http://www.w3.org/2000/svg" xmlns:xlink="http://www.w3.org/1999/xlink" viewBox="0 0 168 72"><defs><style>.cls-1{fill:url(#名称未設定グラデーション_22);}.cls-2{fill:#fff;}</style><linearGradient id="名称未設定グラデーション_22" y1="36" x2="168" y2="36" gradientUnits="userSpaceOnUse"><stop offset="0" stop-color="#ff61a0"/><stop offset="1" stop-color="#ff7bba"/></linearGradient></defs><title>浴衣OK_アイコン</title><path id="長方形_65" data-name="長方形 65" class="cls-1" d="M36,0h96a36,36,0,0,1,36,36h0a36,36,0,0,1-36,36H36A36,36,0,0,1,0,36H0A36,36,0,0,1,36,0Z"/><path class="cls-2" d="M31.46,35.49A25.92,25.92,0,0,0,25.52,32l2.08-2.93a23.17,23.17,0,0,1,6.11,3.13ZM26.28,48a98.27,98.27,0,0,0,5.48-10.17l3,2.38c-1.51,3.43-3.3,7.06-5.08,10.2Zm7-21.32a22.67,22.67,0,0,0-5.84-3.56l2.14-2.94a26.39,26.39,0,0,1,6,3.26Zm10.23-5.15A32.36,32.36,0,0,1,36.94,30a28.67,28.67,0,0,0-3.23-2.51,21.14,21.14,0,0,0,5.94-7.16ZM47,26.74c2.48,4,6.2,7.93,9.93,9.74a22.51,22.51,0,0,0-2.27,3.7,18.54,18.54,0,0,1-1.55-1.06V50.64h-3.9v-1H41.14v1.28H37.37V39.35a14.27,14.27,0,0,1-1.52,1.06,18.64,18.64,0,0,0-2.14-3.47,26.2,26.2,0,0,0,9.44-10.2Zm4.82,11.39a32.26,32.26,0,0,1-6.6-7.39,32.76,32.76,0,0,1-6.31,7.39Zm-2.61,8V41.63H41.14v4.49Zm3.34-16.67a33.92,33.92,0,0,0-6.14-7.59L49.49,20a34.86,34.86,0,0,1,6.43,7.29Zm37.88,3.17a64.15,64.15,0,0,1-8,6.24,23,23,0,0,0,9,8.32,10.66,10.66,0,0,0-2.84,3.56C79.94,45.16,77,38.86,75.45,30.51a38.59,38.59,0,0,1-4.29,4.06V45.06c2.64-.49,5.38-1,8.06-1.58l.36,3.86C74,48.53,68.06,49.69,63.67,50.61l-1.15-4c1.35-.2,3-.49,4.68-.79V37.44a39.45,39.45,0,0,1-5,2.64,34.17,34.17,0,0,0-2.15-3.4,32.93,32.93,0,0,0,11.79-8.12H61.06V24.8H73.54V20H77.6V24.8H90.31v3.76H79.09a40.83,40.83,0,0,0,1.81,7,42.53,42.53,0,0,0,6.21-5.38Zm5.14,3.07c0-7.95,4.46-12.57,10.93-12.57s10.92,4.65,10.92,12.57S113,48.46,106.51,48.46,95.58,43.61,95.58,35.69Zm16.87,0c0-5.25-2.31-8.39-5.94-8.39s-5.94,3.14-5.94,8.39,2.31,8.55,5.94,8.55S112.45,40.9,112.45,35.69Zm11.41-12.11h4.89V34.17h.1l8.09-10.59h5.38l-7.46,9.6L143.63,48h-5.38L132,37l-3.2,4.1V48h-4.89Z"/></svg>